<?xml version="1.0" encoding="UTF-8" standalone="no"?>
<svg
   id="Layer_1"
   data-name="Layer 1"
   viewBox="0 0 123 123"
   version="1.1"
   sodipodi:docname="mail.svg"
   width="123"
   height="123"
   inkscape:version="1.2.1 (9c6d41e4, 2022-07-14)"
   xmlns:inkscape="http://www.inkscape.org/namespaces/inkscape"
   xmlns:sodipodi="http://sodipodi.sourceforge.net/DTD/sodipodi-0.dtd"
   xmlns="http://www.w3.org/2000/svg"
   xmlns:svg="http://www.w3.org/2000/svg"
   xmlns:rdf="http://www.w3.org/1999/02/22-rdf-syntax-ns#"
   xmlns:cc="http://creativecommons.org/ns#"
   xmlns:dc="http://purl.org/dc/elements/1.1/">
  <defs
     id="defs9" />
  <sodipodi:namedview
     id="namedview7"
     pagecolor="#ffffff"
     bordercolor="#000000"
     borderopacity="0.25"
     inkscape:showpageshadow="2"
     inkscape:pageopacity="0.0"
     inkscape:pagecheckerboard="0"
     inkscape:deskcolor="#d1d1d1"
     showgrid="false"
     inkscape:zoom="2.6558631"
     inkscape:cx="62.126695"
     inkscape:cy="45.183051"
     inkscape:window-width="1440"
     inkscape:window-height="622"
     inkscape:window-x="0"
     inkscape:window-y="25"
     inkscape:window-maximized="0"
     inkscape:current-layer="Layer_1" />
  <title
     id="title2">email</title>
  <path
     d="m 7.05,18.190593 h 108.78 a 7.07,7.07 0 0 1 7,7.05 v 74.759997 a 7,7 0 0 1 -1.22,4 2.78,2.78 0 0 1 -0.66,1 2.62,2.62 0 0 1 -0.66,0.46 7,7 0 0 1 -4.51,1.65 H 7.05 a 7.07,7.07 0 0 1 -7,-7 V 25.240593 a 7.07,7.07 0 0 1 7,-7.05 z m -0.3,78.84 36.78,-38.22 -36.78,-31.08 z m 42.32,-33.45 -39.3,38.059997 h 103 l -37.55,-38.059997 -11,9.21 v 0 a 2.7,2.7 0 0 1 -3.45,0 z m 31.6,-4.84 35.46,38.6 v -69.95 z m -70.46,-35.14 52.18,42.29 49.88,-42.29 z"
     id="path4" />
  <metadata
     id="metadata115">
    <rdf:RDF>
      <cc:Work
         rdf:about="">
        <dc:title>email</dc:title>
      </cc:Work>
    </rdf:RDF>
  </metadata>
</svg>
