<svg role="img" viewBox="0 0 123 123" xmlns="http://www.w3.org/2000/svg">
   <title>Mail icon</title>
   <path fill="currentColor"
      d="m 7.05,18.190593 h 108.78 a 7.07,7.07 0 0 1 7,7.05 v 74.759997 a 7,7 0 0 1 -1.22,4 2.78,2.78 0 0 1 -0.66,1 2.62,2.62 0 0 1 -0.66,0.46 7,7 0 0 1 -4.51,1.65 H 7.05 a 7.07,7.07 0 0 1 -7,-7 V 25.240593 a 7.07,7.07 0 0 1 7,-7.05 z m -0.3,78.84 36.78,-38.22 -36.78,-31.08 z m 42.32,-33.45 -39.3,38.059997 h 103 l -37.55,-38.059997 -11,9.21 v 0 a 2.7,2.7 0 0 1 -3.45,0 z m 31.6,-4.84 35.46,38.6 v -69.95 z m -70.46,-35.14 52.18,42.29 49.88,-42.29 z"
      id="path4" />
</svg>